<svg width="393" height="389" viewBox="0 0 393 389" fill="none" xmlns="http://www.w3.org/2000/svg">
<path d="M96.0017 96.4491L0 192.898L20.2109 213.566C31.235 225.048 42.7185 234.234 45.4745 234.234C51.4459 234.234 240.693 45.0096 240.693 38.5796C240.693 31.6904 206.702 -3.14116e-05 198.894 -3.14116e-05C195.219 -3.14116e-05 148.826 43.1724 96.0017 96.4491ZM223.698 47.7652C221.861 51.4395 180.979 91.8563 133.668 137.784L47.3119 221.833L31.235 206.217L15.6175 191.061L106.107 99.664L197.056 8.72632L212.214 25.2604C221.861 35.8239 225.995 43.6317 223.698 47.7652Z" fill="black"/>
<path d="M169.496 169.934L73.4941 266.383L93.705 287.051C104.729 298.533 117.131 307.719 121.265 307.719C124.94 307.719 171.333 264.546 224.157 211.729L320.159 115.739L300.407 94.612C289.843 83.13 277.44 73.4851 273.306 73.4851C269.172 73.4851 222.32 117.117 169.496 169.934ZM289.383 103.338L301.326 119.413L213.133 206.677C164.903 254.442 123.562 293.94 121.725 293.94C117.131 293.94 91.4083 266.843 94.1644 264.546C95.0831 263.628 135.046 223.211 182.357 174.986C230.129 126.762 270.55 87.2635 272.847 87.2635C275.144 87.2635 282.493 94.612 289.383 103.338Z" fill="black"/>
<path d="M246.205 244.797L148.826 342.165L171.793 365.129L194.76 388.093L293.517 289.347L392.275 190.602L371.605 168.556C360.121 156.615 349.097 146.97 347.26 146.97C345.423 146.97 299.948 191.061 246.205 244.797ZM368.389 184.631L375.739 197.032L286.627 284.295L197.056 371.099L180.979 355.484L164.903 339.868L254.474 250.308C351.394 152.941 349.557 154.319 368.389 184.631Z" fill="black"/>
</svg>
