<svg width="2081" height="402" viewBox="0 0 2081 402" fill="none" xmlns="http://www.w3.org/2000/svg">
<path d="M1423.95 6.54478C1358.72 22.1604 1301.31 69.0071 1270.99 131.01C1253.99 165.915 1253.53 168.212 1253.53 217.355C1253.53 262.365 1254.91 270.632 1265.94 294.514C1280.18 324.827 1318.76 365.703 1346.78 379.941C1462.99 439.188 1615.95 371.674 1655.46 243.075C1688.07 137.899 1627.44 30.4274 1522.71 6.54478C1484.12 -2.18156 1460.24 -2.18156 1423.95 6.54478ZM1508.93 97.9418C1519.03 104.372 1530.06 117.691 1536.03 129.632C1574.61 209.547 1523.63 315.641 1446.46 316.101C1417.98 316.101 1398.69 305.078 1381.23 278.899C1369.29 260.527 1368.37 255.935 1368.37 213.221C1368.37 174.642 1370.21 163.619 1378.47 148.463C1390.88 124.58 1425.79 92.4304 1442.78 88.2969C1449.67 86.919 1457.94 85.0819 1460.24 84.1634C1469.42 80.9484 1492.85 87.3783 1508.93 97.9418Z" fill="black"/>
<path d="M491.492 7.92271C488.736 12.5155 456.582 358.354 456.582 383.615V398.771H509.406C547.532 398.771 563.149 397.393 564.527 392.801C565.905 390.045 570.498 347.332 575.092 298.648C579.226 249.964 584.279 210.007 586.116 209.088C587.953 208.629 615.054 250.423 646.749 302.322L703.707 396.475L759.287 397.853C790.062 398.312 814.867 397.393 814.867 395.556C815.326 393.719 823.135 305.996 832.781 201.28C842.427 96.564 849.317 9.30055 848.398 7.00414C846.102 2.87061 742.75 2.87061 739.994 7.46342C738.616 9.30055 734.023 51.0952 729.889 100.238C725.296 149.381 720.243 191.635 718.405 193.472C716.568 195.769 689.467 153.974 658.232 100.698L601.274 4.24845L547.532 3.78917C518.134 3.78917 492.87 5.6263 491.492 7.92271Z" fill="black"/>
<path d="M1070.26 27.6718C1068.88 40.9909 1064.29 92.4304 1060.61 141.574C1051.89 246.749 1049.13 259.15 1031.21 276.602C1005.49 300.944 953.127 297.729 925.567 269.713L911.787 256.394L909.49 275.684C900.763 346.413 900.763 345.035 919.596 362.947C947.615 390.045 972.879 400.608 1010.54 400.608C1067.96 400.149 1119.41 367.54 1145.59 314.723C1157.53 289.921 1160.29 277.98 1164.42 228.837C1166.72 197.147 1171.77 139.277 1175.45 100.238C1179.12 61.1993 1182.34 23.5382 1182.34 16.1897V3.78913H1127.68H1073.01L1070.26 27.6718Z" fill="black"/>
<path d="M1769.83 7.00413C1769.83 8.84126 1762.02 96.564 1752.38 201.28C1742.73 305.996 1736.3 393.719 1738.14 395.556C1739.97 397.853 1795.09 398.771 1860.32 397.853C1974.24 396.475 1980.21 396.015 2003.18 385.452C2067.48 356.517 2099.18 276.143 2068.86 217.814L2057.38 195.309L2068.86 171.886C2078.05 153.056 2080.34 141.574 2080.34 113.557C2080.34 82.7856 2078.51 76.3556 2066.56 56.6065C2056.92 41.4502 2044.98 30.4275 2027.52 20.3233L2002.26 6.08557L1886.5 4.70772C1822.66 3.78916 1770.29 4.70772 1769.83 7.00413ZM1956.78 94.7269C1974.24 106.209 1974.7 130.551 1957.24 149.381C1948.97 159.026 1943.46 159.945 1908.09 159.945H1868.13L1869.97 135.603C1873.64 88.7562 1871.35 91.0526 1914.06 91.0526C1934.73 91.0526 1954.03 92.8897 1956.78 94.7269ZM1958.62 251.801C1971.48 264.661 1970.56 286.247 1956.32 300.026C1946.22 310.589 1942.08 311.508 1899.82 311.508H1854.35L1856.19 287.166C1859.86 239.401 1856.65 242.615 1905.8 242.615C1943.46 242.615 1950.81 243.993 1958.62 251.801Z" fill="black"/>
<path d="M96.0017 109.424L0 205.873L20.2109 226.541C31.235 238.023 42.7185 247.208 45.4745 247.208C51.4459 247.208 240.693 57.9843 240.693 51.5543C240.693 44.6651 206.702 12.9747 198.894 12.9747C195.219 12.9747 148.826 56.1472 96.0017 109.424ZM223.698 60.74C221.861 64.4142 180.979 104.831 133.668 150.759L47.3119 234.808L31.235 219.192L15.6175 204.036L106.107 112.639L197.056 21.701L212.214 38.2352C221.861 48.7987 225.995 56.6064 223.698 60.74Z" fill="black"/>
<path d="M169.496 182.909L73.4941 279.358L93.705 300.026C104.729 311.508 117.131 320.693 121.265 320.693C124.94 320.693 171.333 277.521 224.157 224.704L320.159 128.714L300.407 107.587C289.843 96.1047 277.44 86.4598 273.306 86.4598C269.172 86.4598 222.32 130.092 169.496 182.909ZM289.383 116.313L301.326 132.388L213.133 219.651C164.903 267.417 123.562 306.915 121.725 306.915C117.131 306.915 91.4083 279.817 94.1644 277.521C95.0831 276.602 135.046 236.186 182.357 187.961C230.129 139.736 270.55 100.238 272.847 100.238C275.144 100.238 282.493 107.587 289.383 116.313Z" fill="black"/>
<path d="M246.205 257.772L148.826 355.139L171.793 378.104L194.76 401.068L293.517 302.322L392.275 203.577L371.605 181.531C360.121 169.59 349.097 159.945 347.26 159.945C345.423 159.945 299.948 204.036 246.205 257.772ZM368.389 197.606L375.739 210.007L286.627 297.27L197.056 384.074L180.979 368.459L164.903 352.843L254.474 263.283C351.394 165.916 349.557 167.293 368.389 197.606Z" fill="black"/>
</svg>
